<?xml version="1.0" encoding="utf-8"?>
<!-- Generator: Adobe Illustrator 16.0.0, SVG Export Plug-In . SVG Version: 6.00 Build 0)  -->
<!DOCTYPE svg PUBLIC "-//W3C//DTD SVG 1.1//EN" "http://www.w3.org/Graphics/SVG/1.1/DTD/svg11.dtd">
<svg version="1.1" id="Layer_1" xmlns="http://www.w3.org/2000/svg" xmlns:xlink="http://www.w3.org/1999/xlink" x="0px" y="0px"
	 width="140px" height="140px" viewBox="0 0 140 140" style="enable-background:new 0 0 140 140;" xml:space="preserve">
<style type="text/css">
<![CDATA[
	.st0{fill:#7A62F4;}
	.st1{fill:#7A8A91;}
	.st2{fill:#AA3154;}
	.st3{fill:#474B4F;}
	.st4{fill:#474C51;}
	.st5{fill:#477184;}
	.st6{fill:#AA8D5E;}
	.st7{fill:#AAF789;}
	.st8{fill:#7BE6FF;}
	.st9{fill:#7C66D8;}
	.st10{fill:#7CC0D8;}
	.st11{fill:#495359;}
	.st12{fill:#49DB7A;}
	.st13{fill:#49E500;}
	.st14{fill:#7DA8AA;}
	
		.st15{fill:none;stroke:#7C9199;stroke-width:3;stroke-linecap:round;stroke-linejoin:round;stroke-miterlimit:10;stroke-dasharray:5;}
	.st16{fill:#AD9F7F;}
	.st17{fill:none;stroke:#D3ECEF;stroke-linecap:round;stroke-linejoin:round;stroke-miterlimit:10;}
	.st18{fill:none;stroke:#C42323;stroke-width:3;stroke-linecap:round;stroke-linejoin:round;stroke-miterlimit:10;}
	.st19{fill:#AE52FF;}
	.st20{fill:#10DEF9;}
	.st21{fill:none;stroke:#267DC4;stroke-width:3;stroke-linecap:round;stroke-linejoin:round;stroke-miterlimit:10;}
	.st22{fill:#1162BA;}
	.st23{fill:#E02F2F;}
	.st24{fill:#E05368;}
	.st25{fill:#AFBFCE;}
	.st26{fill:#AFC8DD;}
	.st27{fill:#E0CC77;}
	.st28{fill:#1247B2;}
	.st29{fill:#E0DECE;}
	.st30{fill:#E0FF9C;}
	.st31{fill:none;stroke:#E21A32;stroke-linecap:round;stroke-linejoin:round;stroke-miterlimit:10;}
	.st32{fill:#13D626;}
	.st33{fill:#E2823B;}
	.st34{fill:#1462EF;}
	.st35{fill:#14B0ED;}
	.st36{fill:#1576EA;}
	.st37{fill:#15BDFF;}
	.st38{fill:#1613A5;}
	.st39{fill:#4A5056;}
	.st40{fill:#E55166;}
	.st41{fill:#E55A6B;}
	.st42{fill:#E56171;}
	.st43{fill:none;stroke:#79CC7E;stroke-width:2;stroke-linecap:round;stroke-linejoin:round;stroke-miterlimit:10;}
	.st44{fill:#4B6466;}
	.st45{opacity:0.4;fill:#79CC7E;}
	.st46{fill:#E6F1F4;}
	.st47{fill:#E6F2FC;}
	.st48{fill:#4C6362;}
	.st49{fill:#18AA67;}
	.st50{fill:#4D4D91;}
	.st51{fill:#4D575B;}
	.st52{fill:#E88E0C;}
	.st53{fill:#4DADCE;}
	.st54{fill:#E8E8E8;}
	.st55{opacity:0.3;fill:#9AA5A4;}
	.st56{fill:#80C3FF;}
	.st57{fill:#B066FF;}
	.st58{fill:#818F91;}
	.st59{fill:#B0D1D6;}
	.st60{fill:#B1DBDD;}
	.st61{fill:#B2104E;}
	.st62{fill:none;stroke:#FCFAE8;stroke-width:3;stroke-linecap:round;stroke-linejoin:round;stroke-miterlimit:10;}
	.st63{fill:#B2D1C7;}
	.st64{fill:#83ED3E;}
	.st65{fill:#83ED88;}
	.st66{fill:#8461BC;}
	.st67{fill:#84692C;}
	.st68{fill:#B3C9E2;}
	.st69{fill:none;stroke:#ED8700;stroke-width:3;stroke-linecap:round;stroke-linejoin:round;}
	.st70{fill:none;stroke:#64E2DC;stroke-width:3;stroke-linecap:round;stroke-linejoin:round;stroke-miterlimit:10;}
	.st71{fill:none;stroke:#33363A;stroke-width:3;stroke-linecap:round;stroke-linejoin:round;stroke-miterlimit:10;}
	.st72{fill:none;stroke:#33363A;stroke-width:4;stroke-linecap:round;stroke-linejoin:round;stroke-miterlimit:10;}
	.st73{fill:#85A7A8;}
	.st74{fill:#85C606;}
	.st75{fill:none;stroke:#33363A;stroke-width:5;stroke-linecap:round;stroke-linejoin:round;stroke-miterlimit:10;}
	.st76{fill:#86B2A2;}
	.st77{fill:#EA3D6A;}
	.st78{fill:#875835;}
	.st79{fill:#EA9706;}
	.st80{fill:#1C19AF;}
	.st81{fill:#EAAA0A;}
	.st82{fill:#EABC73;}
	.st83{fill:#EADFB2;}
	.st84{fill:#EAE4BE;}
	.st85{fill:#EAF2F9;}
	.st86{fill:#B7883D;}
	.st87{fill:#1CE5C3;}
	.st88{fill:#1CE8E3;}
	.st89{fill:#B7F467;}
	.st90{fill:none;stroke:#36B0CC;stroke-width:3;stroke-linecap:round;stroke-linejoin:round;stroke-miterlimit:10;}
	.st91{fill:#EBEDD3;}
	.st92{fill:none;stroke:#FFB000;stroke-width:3;stroke-linecap:round;stroke-linejoin:round;stroke-dasharray:8.2755,8.2755;}
	.st93{fill:#1DA834;}
	.st94{fill:#1DC8CC;}
	.st95{fill:#8957CE;}
	.st96{fill:#B8D3D1;}
	.st97{fill:#89A3A3;}
	.st98{fill:#1E91F9;}
	.st99{fill:#B969FF;}
	.st100{fill:#1EA6E2;}
	.st101{fill:#FFFFFF;stroke:#FFFFFF;stroke-width:2;stroke-linecap:round;stroke-linejoin:round;stroke-miterlimit:10;}
	.st102{fill:#ED4706;}
	.st103{fill:#EDA411;}
	.st104{fill:#EDDE88;}
	.st105{fill:#EDF4F4;}
	.st106{fill:#5050E2;}
	.st107{fill:#1FADE5;}
	.st108{enable-background:new    ;}
	.st109{fill:#EF4D4D;}
	.st110{fill:#EF6F7B;}
	.st111{fill:#EF9681;}
	.st112{fill:#EFA37D;}
	.st113{fill:#EFB289;}
	.st114{fill:#EFBD59;}
	.st115{fill:#EFCA0F;}
	.st116{fill:#EFEFDF;}
	.st117{fill:#526163;}
	.st118{fill:#529E54;}
	.st119{fill:#52C408;}
	.st120{fill:#5351B7;}
	.st121{fill:none;stroke:#EBEDD3;stroke-linecap:round;stroke-linejoin:round;stroke-miterlimit:10;}
	.st122{fill:#555D60;}
	.st123{fill:#55DBFF;}
	.st124{fill:none;stroke:#FFEF5A;stroke-width:2;stroke-linecap:round;stroke-linejoin:round;stroke-miterlimit:10;}
	.st125{fill:none;stroke:#FFEF5A;stroke-width:4;stroke-linecap:round;stroke-linejoin:round;stroke-miterlimit:10;}
	.st126{fill:none;stroke:#536B7C;stroke-width:3;stroke-linecap:round;stroke-linejoin:round;stroke-miterlimit:10;}
	.st127{fill:#8A9199;}
	.st128{fill:#8A998A;}
	.st129{fill:#8CE5E2;}
	.st130{fill:#BC3150;}
	.st131{fill:#595F66;}
	.st132{fill:#BC8B4B;}
	.st133{fill:#8DABC9;}
	.st134{fill:#8E7EED;}
	.st135{fill:#8EC1C1;}
	.st136{fill:#20BCF2;}
	.st137{fill:#8F56D8;}
	.st138{fill:#BEDD05;}
	.st139{fill:none;stroke:#EAD7FF;stroke-width:3;stroke-linecap:round;stroke-linejoin:round;stroke-miterlimit:10;}
	.st140{fill:#2178F7;}
	.st141{fill:#219B1E;}
	.st142{fill:#BF76FF;}
	.st143{fill:none;stroke:#88CCFF;stroke-width:3;stroke-linecap:round;stroke-linejoin:round;stroke-miterlimit:10;}
	.st144{fill:#22A1EF;}
	.st145{fill:#237AF9;}
	.st146{fill:#F2790C;}
	.st147{fill:#246DED;}
	.st148{fill:#F3FAFF;}
	.st149{fill:#25C10A;}
	.st150{fill:#F42535;}
	.st151{fill:#F4921E;}
	.st152{fill:#F4AB0B;}
	.st153{fill:#F4F3E9;}
	.st154{fill:#5A5F63;}
	.st155{fill:#26A3F7;}
	.st156{fill:#F5FEFF;}
	.st157{fill:#277AF4;}
	.st158{fill:#2792F4;}
	.st159{fill:#279377;}
	.st160{fill:#27C927;}
	.st161{fill:#5C2DE0;}
	.st162{fill:#F7441C;}
	.st163{fill:#F7910B;}
	.st164{fill:#F79E00;}
	.st165{fill:none;stroke:#FFB000;stroke-width:3;stroke-linecap:round;stroke-linejoin:round;}
	.st166{fill:#5D3EDD;}
	.st167{fill:#29CDFF;}
	.st168{fill:#5E6870;}
	.st169{fill:#F9A858;}
	.st170{fill:#F9C19B;}
	.st171{fill:#F9E446;}
	.st172{fill:#5F666B;}
	.st173{fill:#5FCE96;}
	.st174{fill:#90B2B1;}
	.st175{fill:#91EA57;}
	.st176{fill:#C11E5C;}
	.st177{fill:#C14830;}
	.st178{fill:#C17E25;}
	.st179{fill:#C1B995;}
	.st180{fill:#C1BFA7;}
	.st181{fill:none;stroke:#F9EF95;stroke-width:3;stroke-linecap:round;stroke-linejoin:round;stroke-miterlimit:10;}
	.st182{fill:#92E0FF;}
	.st183{fill:#92FC6B;}
	.st184{fill:#C28AE2;}
	.st185{fill:#939DA3;}
	.st186{fill:#C3D8D6;}
	.st187{fill:#C3DFE0;}
	.st188{fill:#C42323;}
	.st189{fill:#C4415B;}
	.st190{fill:#C480FF;}
	.st191{fill:#95AF68;}
	.st192{fill:#2A8BF4;}
	.st193{fill:#2AAD2A;}
	.st194{fill:#C5E3EA;}
	.st195{fill:#C63C4D;}
	.st196{fill:#C67A6D;}
	.st197{fill:#C6BA9B;}
	.st198{fill:#FC4259;}
	.st199{fill:#FC90A2;}
	.st200{fill:#C8DBDB;}
	.st201{fill:#FCC322;}
	.st202{fill:#FCDECA;}
	.st203{fill:#FCF8E6;}
	.st204{fill:#2E6ECC;}
	.st205{fill:#FCFCB9;}
	.st206{fill:none;stroke:#FFB000;stroke-width:3;stroke-linecap:round;stroke-linejoin:round;stroke-dasharray:8.028,8.028;}
	.st207{fill:#C9E1F2;}
	.st208{fill:#FDFFFF;}
	.st209{fill:#FF315D;}
	.st210{fill:#FF3636;}
	.st211{fill:#FF4800;}
	.st212{fill:#FF502E;}
	.st213{fill:#FF5B00;}
	.st214{fill:#FF647E;}
	.st215{fill:#FF6B06;}
	.st216{fill:#FF7639;}
	.st217{fill:#FF7892;}
	.st218{fill:#FF7900;}
	.st219{fill:#FF8103;}
	.st220{fill:#FF8500;}
	.st221{fill:#FF9100;}
	.st222{fill:#FF9700;}
	.st223{fill:#FF9E12;}
	.st224{fill:#61BBFF;}
	.st225{fill:#FFA300;}
	.st226{fill:#FFAA00;}
	.st227{fill:#FFABBF;}
	.st228{fill:#FFB000;}
	.st229{fill:#FFB206;}
	.st230{fill:#FFBC00;}
	.st231{fill:#FFBF31;}
	.st232{fill:#FFC1AE;}
	.st233{fill:#FFC200;}
	.st234{fill:#FFC757;}
	.st235{fill:#FFC817;}
	.st236{fill:#FFCE00;}
	.st237{fill:#FFD243;}
	.st238{fill:#FFD400;}
	.st239{fill:#FFD833;}
	.st240{fill:#FFD9C0;}
	.st241{fill:#FFDC10;}
	.st242{fill:#FFDE52;}
	.st243{fill:#FFE108;}
	.st244{fill:#FFE10B;}
	.st245{fill:#FFE31A;}
	.st246{fill:#FFE448;}
	.st247{fill:#FFE8C2;}
	.st248{fill:#FFE98F;}
	.st249{fill:#FFEB5A;}
	.st250{fill:#FFEDA1;}
	.st251{fill:#FFF19C;}
	.st252{fill:#FFF6E1;}
	.st253{fill:#FFF87B;}
	.st254{fill:#FFF8C7;}
	.st255{fill:#FFFCEE;}
	.st256{fill:#FFFFFF;}
	.st257{fill:#62CEDD;}
	.st258{fill:#636E72;}
	.st259{fill:none;stroke:#DDAC24;stroke-width:2;stroke-linecap:round;stroke-linejoin:round;stroke-miterlimit:10;}
	.st260{fill:#64BDFF;}
	.st261{fill:#64E2DC;}
	.st262{fill:none;stroke:#33363A;stroke-linecap:round;stroke-linejoin:round;stroke-miterlimit:10;}
	.st263{fill:#66797F;}
	.st264{fill:none;stroke:#EBC0F9;stroke-width:3;stroke-linecap:round;stroke-linejoin:round;stroke-miterlimit:10;}
	.st265{fill:#9AC1C1;}
	.st266{fill:#676E72;}
	.st267{fill:#677F7F;}
	.st268{fill:#678B99;}
	.st269{fill:#9B0751;}
	.st270{fill:#9B6743;}
	.st271{fill:#9B7335;}
	.st272{fill:none;stroke:#E0FF9C;stroke-width:3;stroke-linecap:round;stroke-linejoin:round;stroke-miterlimit:10;}
	.st273{fill:#CAD7E5;}
	.st274{fill:#CAE5E3;}
	.st275{fill:none;stroke:#FFD815;stroke-width:3;stroke-linecap:round;stroke-linejoin:round;stroke-miterlimit:10;}
	.st276{fill:none;stroke:#64C0F9;stroke-width:3;stroke-linecap:round;stroke-linejoin:round;stroke-miterlimit:10;}
	.st277{fill:#68B6DD;}
	.st278{fill:#CC445B;}
	.st279{fill:none;stroke:#66A8F7;stroke-width:3;stroke-linecap:round;stroke-linejoin:round;stroke-miterlimit:10;}
	.st280{fill:#9D67C1;}
	.st281{fill:#CCFFFF;}
	.st282{fill:#9DC0C4;}
	.st283{fill:#9E2323;}
	.st284{fill:#9E45DD;}
	.st285{fill:#CDDEE0;}
	.st286{fill:#309FD6;}
	.st287{fill:none;stroke:#ED8700;stroke-width:3;stroke-linecap:round;stroke-linejoin:round;stroke-dasharray:7.7039,7.7039;}
	.st288{fill:#CE4313;}
	.st289{fill:#CEA255;}
	.st290{fill:#9FC1B5;}
	.st291{fill:#3131DD;}
	.st292{fill:#33363A;}
	.st293{fill:#334746;}
	.st294{fill:#3380CC;}
	.st295{fill:#34C166;}
	.st296{fill:#363B3F;}
	.st297{fill:#6A797C;}
	.st298{fill:#33363A;stroke:#33363A;stroke-width:3;stroke-linecap:round;stroke-linejoin:round;stroke-miterlimit:10;}
	.st299{fill:#6C85FF;}
	.st300{opacity:0.2;fill:#3C8DA0;}
	.st301{fill:none;stroke:#5F6266;stroke-width:3;stroke-linecap:round;stroke-linejoin:round;stroke-miterlimit:10;}
	.st302{fill:#00ADDB;}
	.st303{fill:#6F898C;}
	.st304{fill:#6FAF00;}
	.st305{fill:#D0D8CA;}
	.st306{fill:#D0E0EA;}
	.st307{fill:#D0E2F4;}
	.st308{fill:none;stroke:#FFB000;stroke-width:3;stroke-linecap:round;stroke-linejoin:round;stroke-dasharray:7.8476,7.8476;}
	.st309{fill:none;stroke:#33363A;stroke-width:10;stroke-linecap:round;stroke-linejoin:round;stroke-miterlimit:10;}
	.st310{fill:#04968E;}
	.st311{fill:#D30B49;}
	.st312{fill:#D31818;}
	.st313{fill:#D34624;}
	.st314{fill:#D39F1E;}
	.st315{fill:#D3D1C1;}
	.st316{fill:#D3DADD;}
	.st317{fill:#D3E5EA;}
	.st318{fill:#055E6D;}
	.st319{fill:#059CE8;}
	.st320{fill:#064E7F;}
	.st321{fill:#066782;}
	.st322{fill:#07563C;}
	.st323{fill:#D5E2CC;}
	.st324{fill:#3B4244;}
	.st325{fill:#D60024;}
	.st326{fill:#D6702B;}
	.st327{fill:#D68967;}
	.st328{fill:#D6A545;}
	.st329{fill:#D6CB9D;}
	.st330{fill:#3C4044;}
	.st331{fill:#08BC26;}
	.st332{fill:#097F2A;}
	.st333{fill:none;stroke:#FFAB94;stroke-width:4;stroke-linecap:round;stroke-linejoin:round;stroke-miterlimit:10;}
	.st334{fill:#3D5957;}
	.st335{fill:#3D99F4;}
	.st336{fill:#D8235F;}
	.st337{fill:#D83055;}
	.st338{fill:#D83563;}
	.st339{fill:#D83705;}
	.st340{fill:#D8533D;}
	.st341{fill:#D8D7C0;}
	.st342{fill:#3E9FF7;}
	.st343{fill:#D9F0F4;}
	.st344{fill:#705622;}
	.st345{fill:#70D63A;}
	.st346{fill:#A03F25;}
	.st347{fill:#A07F3C;}
	.st348{opacity:0.6;fill:#2670BF;}
	.st349{fill:#A0BAB9;}
	.st350{fill:#A197FC;}
	.st351{fill:#727B84;}
	.st352{fill:#A1C6C6;}
	.st353{fill:#A23FE8;}
	.st354{fill:#737F73;}
	.st355{fill:#73F4B3;}
	.st356{fill:#A31153;}
	.st357{fill:#748C4F;}
	.st358{fill:#749997;}
	.st359{fill:#0A7BE2;}
	.st360{fill:#0A8989;}
	.st361{fill:#0A912A;}
	.st362{fill:#0A9B3D;}
	.st363{fill:#0A9DBF;}
	.st364{fill:#A53CEF;}
	.st365{fill:#0ABAEA;}
	.st366{fill:#A5BFBF;}
	.st367{fill:#7799AA;}
	.st368{fill:#77D852;}
	.st369{fill:#0C4ABA;}
	.st370{fill:#DAE5E5;}
	.st371{fill:#0CA813;}
	.st372{fill:#788E8D;}
	.st373{fill:#78CFFF;}
	.st374{fill:#A8273D;}
	.st375{fill:#79CC7E;}
	.st376{fill:#0E48DB;}
	.st377{fill:#DCE7EF;}
	.st378{fill:#0E7F24;}
	.st379{fill:#DDAC24;}
	.st380{fill:#DDC872;}
	.st381{fill:#DDE6E8;}
	.st382{fill:#404449;}
	.st383{fill:#0FA88E;}
	.st384{fill:#DEF21D;}
	.st385{fill:#4120CE;}
	.st386{fill:none;stroke:#CCB13E;stroke-width:3;stroke-linecap:round;stroke-linejoin:round;stroke-miterlimit:10;}
	.st387{fill:#41F7D4;}
	.st388{fill:#DFEDEF;}
	.st389{fill:#DFF4E9;}
	.st390{fill:#DFF7F6;}
	.st391{fill:#42E6EA;}
	.st392{fill:#43474C;}
	.st393{fill:#43B1E8;}
	.st394{fill:#44CC7B;}
	.st395{fill:#45484C;}
	.st396{fill:#454A4F;}
	.st397{fill:#45BA0F;}
	.st398{fill:#45CAFF;}
]]>
</style>
<g>
	<path class="st66" d="M116.302,129.182c6.262-9.393,9.918-20.668,9.918-32.803c0-32.703-26.512-59.213-59.215-59.213
		S7.79,63.676,7.79,96.379c0,12.135,3.656,23.41,9.918,32.803H116.302z"/>
	<path class="st50" d="M7.79,96.379c0,12.135,3.656,23.41,9.918,32.803h98.594c6.262-9.393,9.918-20.668,9.918-32.803H7.79z"/>
	<g>
		<path class="st253" d="M86.098,129.182c-0.329-0.455-0.686-0.896-1.095-1.307L57.89,98.123c-4.124-4.125-10.811-4.125-14.935,0
			l-27.112,29.752c-0.41,0.41-0.768,0.852-1.096,1.307H86.098z"/>
		<path class="st171" d="M57.89,98.123c-0.867-0.869-1.853-1.543-2.898-2.045c-1.047,0.502-2.032,1.176-2.9,2.045l-27.111,29.752
			c-0.41,0.41-0.768,0.852-1.097,1.307h62.215c-0.329-0.455-0.686-0.896-1.095-1.307L57.89,98.123z"/>
		<path class="st231" d="M85.003,127.875L57.89,98.123l-21.65,29.752c-0.41,0.41-21.164,0.852-21.492,1.307h71.351
			C85.769,128.727,85.412,128.285,85.003,127.875z"/>
		<path class="st71" d="M86.098,129.182c-0.329-0.455-0.686-0.896-1.095-1.307L57.89,98.123c-4.124-4.125-10.811-4.125-14.935,0
			l-27.112,29.752c-0.41,0.41-0.768,0.852-1.096,1.307H86.098z"/>
	</g>
	<g>
		<path class="st253" d="M129.266,129.182c-0.423-0.588-0.885-1.156-1.413-1.688L92.849,84.57c-5.325-5.326-13.959-5.326-19.283,0
			l-35.005,42.924c-0.529,0.531-0.991,1.1-1.415,1.688H129.266z"/>
		<path class="st171" d="M92.849,84.57c-1.455-1.455-3.159-2.496-4.973-3.156c-1.812,0.66-3.517,1.701-4.972,3.156L47.9,127.494
			c-0.529,0.531-0.991,1.1-1.415,1.688h82.78c-0.423-0.588-0.885-1.156-1.413-1.688L92.849,84.57z"/>
		<path class="st231" d="M127.853,127.494L92.849,84.57l-27.953,42.924c-0.53,0.531-27.326,1.1-27.75,1.688h92.12
			C128.843,128.594,128.381,128.025,127.853,127.494z"/>
		<path class="st71" d="M129.266,129.182c-0.423-0.588-0.885-1.156-1.413-1.688L92.849,84.57c-5.325-5.326-13.959-5.326-19.283,0
			l-35.005,42.924c-0.529,0.531-0.991,1.1-1.415,1.688H129.266z"/>
	</g>
	<line class="st71" x1="8.401" y1="129.182" x2="132.21" y2="129.182"/>
	<g>
		<g>
			<g>
				<path class="st194" d="M84.885,71.352c-19.685,0-35.644-15.957-35.644-35.643c0-9.686,3.87-18.465,10.141-24.891
					c-17.926,1.871-31.902,17.027-31.902,35.447c0,19.686,15.959,35.645,35.643,35.645c9.998,0,19.03-4.123,25.503-10.754
					C87.396,71.285,86.148,71.352,84.885,71.352z"/>
			</g>
			<path class="st59" d="M79.084,70.875C62.16,68.104,49.241,53.418,49.241,35.709c0-8.27,2.827-15.871,7.553-21.916
				c-14.03,4.791-24.123,18.08-24.123,33.73c0,15.85,10.348,29.275,24.651,33.91c1.888,0.309,3.824,0.477,5.8,0.477
				c9.31,0,17.777-3.576,24.126-9.422C84.421,72.266,81.688,71.719,79.084,70.875z"/>
			<g>
				<path class="st71" d="M84.885,71.352c-19.685,0-35.644-15.957-35.644-35.643c0-9.686,3.87-18.465,10.141-24.891
					c-17.926,1.871-31.902,17.027-31.902,35.447c0,19.686,15.959,35.645,35.643,35.645c9.998,0,19.03-4.123,25.503-10.754
					C87.396,71.285,86.148,71.352,84.885,71.352z"/>
			</g>
			<circle class="st282" cx="40.024" cy="40.871" r="2.451"/>
			<circle class="st282" cx="47.154" cy="31.512" r="0.669"/>
			<circle class="st282" cx="44.926" cy="66.494" r="1.782"/>
			<circle class="st282" cx="47.822" cy="55.451" r="0.892"/>
			<circle class="st282" cx="66.298" cy="72.57" r="1.226"/>
			<circle class="st282" cx="42.104" cy="58.25" r="1.04"/>
			<circle class="st282" cx="53.542" cy="68.797" r="3.12"/>
			<circle class="st282" cx="39.188" cy="52.162" r="1.615"/>
			<circle class="st59" cx="67.524" cy="22.766" r="0.613"/>
			<circle class="st59" cx="79.686" cy="35.154" r="1.04"/>
			<path class="st59" d="M71.517,31.885c0,0.203-0.167,0.369-0.372,0.369c-0.204,0-0.372-0.166-0.372-0.369
				c0-0.207,0.168-0.373,0.372-0.373C71.35,31.512,71.517,31.678,71.517,31.885z"/>
			<circle class="st59" cx="58.11" cy="34.113" r="1.449"/>
			<circle class="st59" cx="59.959" cy="49.039" r="2.339"/>
			<circle class="st59" cx="88.145" cy="46.248" r="0.92"/>
			<circle class="st59" cx="79.686" cy="50.973" r="1.04"/>
			<rect x="75.08" y="52.902" class="st59" width="0" height="0"/>
			<circle class="st59" cx="77.979" cy="66.494" r="0.817"/>
			<circle class="st59" cx="65.705" cy="72.57" r="2.46"/>
			<circle class="st59" cx="46.04" cy="49.932" r="1.114"/>
			<circle class="st59" cx="69.882" cy="40.871" r="1.04"/>
			<circle class="st59" cx="83.279" cy="23.686" r="0.919"/>
			<circle class="st59" cx="69.009" cy="72.789" r="0.873"/>
		</g>
		<g>
			<line class="st17" x1="105.641" y1="34.039" x2="105.641" y2="38.35"/>
			<line class="st17" x1="107.796" y1="36.193" x2="103.485" y2="36.193"/>
		</g>
		<g>
			<line class="st17" x1="75.079" y1="13.785" x2="75.079" y2="15.75"/>
			<line class="st17" x1="76.062" y1="14.768" x2="74.099" y2="14.768"/>
		</g>
		<g>
			<line class="st17" x1="100.638" y1="83.49" x2="104.871" y2="87.723"/>
			<line class="st17" x1="104.871" y1="83.49" x2="100.638" y2="87.723"/>
		</g>
		<g>
			<g>
				<line class="st17" x1="27.479" y1="84.066" x2="31.79" y2="84.066"/>
				<line class="st17" x1="29.635" y1="81.91" x2="29.635" y2="86.221"/>
			</g>
			<g>
				<line class="st17" x1="28.111" y1="82.541" x2="31.159" y2="85.59"/>
				<line class="st17" x1="31.159" y1="82.541" x2="28.11" y2="85.588"/>
			</g>
		</g>
		<g>
			<g>
				<line class="st121" x1="43.885" y1="86.221" x2="48.194" y2="86.221"/>
				<line class="st121" x1="46.04" y1="84.066" x2="46.04" y2="88.375"/>
			</g>
			<g>
				<line class="st121" x1="44.517" y1="84.697" x2="47.563" y2="87.746"/>
				<line class="st121" x1="47.563" y1="84.697" x2="44.516" y2="87.744"/>
			</g>
		</g>
		<g>
			<g>
				<line class="st121" x1="111.966" y1="72.789" x2="117.954" y2="72.789"/>
				<line class="st121" x1="114.96" y1="69.795" x2="114.96" y2="75.783"/>
			</g>
			<g>
				<line class="st121" x1="112.843" y1="70.674" x2="117.077" y2="74.906"/>
				<line class="st121" x1="117.077" y1="70.674" x2="112.843" y2="74.906"/>
			</g>
		</g>
		<circle class="st91" cx="22.12" cy="13.824" r="0.943"/>
		<circle class="st91" cx="28.192" cy="16.361" r="0.713"/>
		<circle class="st91" cx="104.961" cy="57.658" r="2.208"/>
		<circle class="st14" cx="101.274" cy="73.398" r="0.747"/>
		<circle class="st14" cx="18.241" cy="43.951" r="0.629"/>
		<circle class="st14" cx="20.023" cy="32.666" r="1.153"/>
		<ellipse class="st14" cx="99.658" cy="27.502" rx="0.87" ry="0"/>
		<circle class="st14" cx="58.109" cy="24.604" r="1.483"/>
		<circle class="st14" cx="105.64" cy="23.445" r="0.679"/>
	</g>
	<g>
		<g>
			<path class="st256" d="M62.474,35.6c0.6-7.816,7.117-13.975,15.086-13.975c8.323,0,15.072,6.715,15.139,15.023
				c3.878,1.822,6.568,5.752,6.568,10.322v0.906c0,6.303-5.109,11.414-11.413,11.414H63.314c-6.304,0-11.413-5.111-11.413-11.414
				v-0.906C51.901,40.951,56.564,36.031,62.474,35.6z"/>
			<path class="st343" d="M77.56,26.57c8.323,0,15.072,6.717,15.139,15.023c3.298,1.551,5.721,4.633,6.376,8.33
				c-0.966,5.324-5.616,9.367-11.221,9.367H63.314c-5.616,0-10.274-4.062-11.226-9.406c0.91-5.061,5.157-8.957,10.385-9.34
				C63.073,32.73,69.591,26.57,77.56,26.57z"/>
			<path class="st71" d="M62.474,35.6c0.6-7.816,7.117-13.975,15.086-13.975c8.323,0,15.072,6.715,15.139,15.023
				c3.878,1.822,6.568,5.752,6.568,10.322v0.906c0,6.303-5.109,11.414-11.413,11.414H63.314c-6.304,0-11.413-5.111-11.413-11.414
				v-0.906C51.901,40.951,56.564,36.031,62.474,35.6z"/>
		</g>
		<g>
			<path class="st256" d="M79.114,39.992c-3.835,0-7.037,2.695-7.825,6.295c-0.12-0.49-0.188-0.998-0.188-1.523
				c0-4.426,3.588-8.014,8.014-8.014c5.533,0,10.018,4.484,10.018,10.016c0,0.594-0.044,1.178-0.123,1.748
				C88.284,43.693,84.137,39.992,79.114,39.992z"/>
		</g>
	</g>
</g>
</svg>
